<svg version="1.2" xmlns="http://www.w3.org/2000/svg" viewBox="0 0 128 128" width="128" height="128">
	<title>icon2</title>
	<style>
		.s0 { fill: #ffffff } 
		.s1 { fill: #478cbf } 
	</style>
	<g>
		<path class="s0" d="m22.9 80.3v3.3q41.1 35.8 82.2 0v-3.3z"/>
		<path fill-rule="evenodd" class="s1" d="m22.9 55.4q-3-3.9-5.6-8.1 3.5-6 8.4-10.9 4.3 2 8.2 4.7 4.1-3.7 8.9-6.5-0.7-5.1-0.8-10.3 6-2.8 12.4-4.2 2.7 4.3 4.7 9 4.9-0.7 9.9 0 2-4.7 4.6-9 6.5 1.4 12.5 4.2-0.1 5.2-0.9 10.3 4.9 2.8 8.9 6.5 4-2.7 8.3-4.7 4.9 4.9 8.4 10.9-2.6 4.2-5.7 8.1v24.9l-15.3 1.4q-1.2 0.1-1.5 1.4l-0.4 6.8-13.4 1-0.8-6.2q-0.2-1.1-1.5-1.5h-16.3q-1.4 0.4-1.6 1.5l-0.8 6.2-13.3-1-0.4-6.8q-0.3-1.3-1.5-1.4l-15.4-1.4zm13.6 29.4l0.5 7q0.2 1 1.4 1.3l16.3 1.1q1.3 0 1.7-1.1l1-6.6h13.3l1 6.6q0.4 1.1 1.6 1.1l16.4-1.1q1.2-0.3 1.4-1.3l0.5-7 13.5-1.2v3.9c-0.1 27.9-82.2 27.9-82.2 0v-3.9z"/>
		<path class="s0" d="m85.5 74.5c-5 0-9-4-9-9.1 0-5 4-9 9-9 5.1 0 9.1 4 9.1 9 0 5.1-4 9.1-9.1 9.1z"/>
		<path class="s0" d="m42.5 74.5c-5 0-9.1-4-9.1-9.1 0-5 4.1-9 9.1-9 5 0 9.1 4 9.1 9 0 5.1-4.1 9.1-9.1 9.1z"/>
	</g>
	<g>
	</g>
</svg>