<svg width="142" height="142" viewBox="0 0 142 142" fill="none" xmlns="http://www.w3.org/2000/svg">
<rect x="4" y="4" width="134" height="134" rx="67" fill="white"/>
<rect x="4" y="4" width="134" height="134" rx="67" stroke="black" stroke-width="8"/>
<path d="M40.707 102.219C40.707 100.073 42.1443 97.959 43.2729 96.2573C47.738 89.5248 54.2627 84.0507 61.3431 80.2288C74.0353 73.3777 93.1932 73.9171 102.79 85.9283C104.109 87.5789 105.326 89.637 105.367 91.8025C105.379 92.4266 105.372 94.6549 105.956 94.947" stroke="black" stroke-width="8" stroke-linecap="round"/>
<path d="M35.2031 65.0737C35.5856 65.0737 36.0488 64.6807 35.3997 64.6807" stroke="black" stroke-width="8" stroke-linecap="round"/>
<path d="M103.598 60.75H104.777" stroke="black" stroke-width="8" stroke-linecap="round"/>
<path d="M98 2H126C133.732 2 140 8.26801 140 16V46H98V2Z" fill="#999999"/>
<path d="M98 2H126C133.732 2 140 8.26801 140 16V46H98V2Z" stroke="black" stroke-width="4"/>
<path d="M127.719 36H124.359L112.125 17.0312H112L112.078 18.2969C112.203 20.1927 112.266 21.8385 112.266 23.2344V36H109.609V13.1562H112.938L113.641 14.2656L121.141 25.8594L125.125 32.0625H125.25C125.229 31.8125 125.188 30.9219 125.125 29.3906C125.062 27.849 125.031 26.7344 125.031 26.0469V13.1562H127.719V36Z" fill="black"/>
</svg>
